<mxfile host="app.diagrams.net" agent="Mozilla/5.0 (Windows NT 10.0; Win64; x64) AppleWebKit/537.36 (KHTML, like Gecko) Chrome/136.0.0.0 Safari/537.36" version="27.0.6">
  <diagram name="Página-1" id="5hIjsbaCpTf4_EqwYwrd">
    <mxGraphModel dx="928" dy="1797" grid="1" gridSize="10" guides="1" tooltips="1" connect="1" arrows="1" fold="1" page="1" pageScale="1" pageWidth="827" pageHeight="1169" math="0" shadow="0">
      <root>
        <mxCell id="0" />
        <mxCell id="1" parent="0" />
        <mxCell id="5G2NS2qgoAP8DJX1MPoN-1" value="" style="rounded=1;whiteSpace=wrap;html=1;fillColor=none;strokeColor=default;movable=0;resizable=0;rotatable=0;deletable=0;editable=0;locked=1;connectable=0;" parent="1" vertex="1">
          <mxGeometry x="220" y="40" width="550" height="450" as="geometry" />
        </mxCell>
        <mxCell id="5G2NS2qgoAP8DJX1MPoN-2" style="edgeStyle=orthogonalEdgeStyle;rounded=0;orthogonalLoop=1;jettySize=auto;html=1;entryX=0;entryY=0.5;entryDx=0;entryDy=0;exitX=0.5;exitY=0.5;exitDx=0;exitDy=0;exitPerimeter=0;" parent="1" source="5G2NS2qgoAP8DJX1MPoN-3" target="5G2NS2qgoAP8DJX1MPoN-5" edge="1">
          <mxGeometry relative="1" as="geometry">
            <mxPoint x="140" y="275" as="sourcePoint" />
          </mxGeometry>
        </mxCell>
        <mxCell id="5G2NS2qgoAP8DJX1MPoN-3" value="Usuario" style="shape=umlActor;verticalLabelPosition=bottom;verticalAlign=top;html=1;" parent="1" vertex="1">
          <mxGeometry x="80" y="227.5" width="50" height="95" as="geometry" />
        </mxCell>
        <mxCell id="5G2NS2qgoAP8DJX1MPoN-4" style="edgeStyle=orthogonalEdgeStyle;rounded=0;orthogonalLoop=1;jettySize=auto;html=1;exitX=1;exitY=0.5;exitDx=0;exitDy=0;entryX=0;entryY=0.5;entryDx=0;entryDy=0;" parent="1" source="5G2NS2qgoAP8DJX1MPoN-5" target="5G2NS2qgoAP8DJX1MPoN-10" edge="1">
          <mxGeometry relative="1" as="geometry" />
        </mxCell>
        <mxCell id="5G2NS2qgoAP8DJX1MPoN-5" value="Ingresa&lt;div&gt;Credenciales&lt;/div&gt;" style="ellipse;whiteSpace=wrap;html=1;" parent="1" vertex="1">
          <mxGeometry x="240" y="150" width="140" height="70" as="geometry" />
        </mxCell>
        <mxCell id="5G2NS2qgoAP8DJX1MPoN-6" style="edgeStyle=orthogonalEdgeStyle;rounded=0;orthogonalLoop=1;jettySize=auto;html=1;exitX=0;exitY=0.5;exitDx=0;exitDy=0;entryX=1;entryY=0.5;entryDx=0;entryDy=0;" parent="1" source="5G2NS2qgoAP8DJX1MPoN-7" target="5G2NS2qgoAP8DJX1MPoN-11" edge="1">
          <mxGeometry relative="1" as="geometry">
            <mxPoint x="450" y="350" as="targetPoint" />
          </mxGeometry>
        </mxCell>
        <mxCell id="5G2NS2qgoAP8DJX1MPoN-7" value="Registro" style="ellipse;whiteSpace=wrap;html=1;" parent="1" vertex="1">
          <mxGeometry x="500" y="322.5" width="140" height="70" as="geometry" />
        </mxCell>
        <mxCell id="5G2NS2qgoAP8DJX1MPoN-8" value="&amp;lt;&amp;lt; include &amp;gt;&amp;gt;" style="text;html=1;align=center;verticalAlign=middle;whiteSpace=wrap;rounded=0;" parent="1" vertex="1">
          <mxGeometry x="340" y="90" width="90" height="30" as="geometry" />
        </mxCell>
        <mxCell id="Xj2y9jhZU2Z0p5fVJHXv-2" style="edgeStyle=orthogonalEdgeStyle;rounded=0;orthogonalLoop=1;jettySize=auto;html=1;exitX=1;exitY=0.5;exitDx=0;exitDy=0;" parent="1" source="5G2NS2qgoAP8DJX1MPoN-10" target="Xj2y9jhZU2Z0p5fVJHXv-1" edge="1">
          <mxGeometry relative="1" as="geometry" />
        </mxCell>
        <mxCell id="5G2NS2qgoAP8DJX1MPoN-10" value="Valida Datos" style="ellipse;whiteSpace=wrap;html=1;" parent="1" vertex="1">
          <mxGeometry x="425" y="100" width="140" height="70" as="geometry" />
        </mxCell>
        <mxCell id="5G2NS2qgoAP8DJX1MPoN-11" value="Ingresa&lt;div&gt;al Menú&lt;/div&gt;" style="ellipse;whiteSpace=wrap;html=1;" parent="1" vertex="1">
          <mxGeometry x="250" y="322.5" width="140" height="70" as="geometry" />
        </mxCell>
        <mxCell id="5G2NS2qgoAP8DJX1MPoN-12" value="&lt;h1&gt;&lt;b&gt;&lt;font face=&quot;Helvetica&quot; style=&quot;font-size: 20px;&quot;&gt;Casos de Uso - Registro de Usuarios&lt;/font&gt;&lt;/b&gt;&lt;/h1&gt;" style="text;html=1;align=center;verticalAlign=middle;whiteSpace=wrap;rounded=0;" parent="1" vertex="1">
          <mxGeometry x="222.5" y="-20" width="545" height="30" as="geometry" />
        </mxCell>
        <mxCell id="5G2NS2qgoAP8DJX1MPoN-19" style="edgeStyle=orthogonalEdgeStyle;rounded=0;orthogonalLoop=1;jettySize=auto;html=1;exitX=0.5;exitY=0.5;exitDx=0;exitDy=0;exitPerimeter=0;entryX=1;entryY=0.5;entryDx=0;entryDy=0;" parent="1" source="5G2NS2qgoAP8DJX1MPoN-15" target="5G2NS2qgoAP8DJX1MPoN-7" edge="1">
          <mxGeometry relative="1" as="geometry" />
        </mxCell>
        <mxCell id="5G2NS2qgoAP8DJX1MPoN-15" value="Base de Datos&lt;div&gt;&lt;br&gt;&lt;/div&gt;" style="shape=umlActor;verticalLabelPosition=bottom;verticalAlign=top;html=1;outlineConnect=0;" parent="1" vertex="1">
          <mxGeometry x="890" y="307.5" width="50" height="100" as="geometry" />
        </mxCell>
        <mxCell id="Xj2y9jhZU2Z0p5fVJHXv-1" value="Verificar Politicas&lt;div&gt;de Seguridad&lt;/div&gt;" style="ellipse;whiteSpace=wrap;html=1;" parent="1" vertex="1">
          <mxGeometry x="600" y="180" width="140" height="70" as="geometry" />
        </mxCell>
        <mxCell id="Xj2y9jhZU2Z0p5fVJHXv-3" style="edgeStyle=orthogonalEdgeStyle;rounded=0;orthogonalLoop=1;jettySize=auto;html=1;exitX=1;exitY=0.5;exitDx=0;exitDy=0;entryX=0.5;entryY=0;entryDx=0;entryDy=0;entryPerimeter=0;" parent="1" source="Xj2y9jhZU2Z0p5fVJHXv-1" target="5G2NS2qgoAP8DJX1MPoN-15" edge="1">
          <mxGeometry relative="1" as="geometry" />
        </mxCell>
      </root>
    </mxGraphModel>
  </diagram>
</mxfile>
